<svg width="12" height="12" viewBox="0 0 12 12" fill="none" xmlns="http://www.w3.org/2000/svg">
<path d="M1.95721 0.542893C1.56668 0.152369 0.933516 0.152369 0.542992 0.542893C0.152468 0.933418 0.152468 1.56658 0.542992 1.95711L4.58584 5.99995L0.542893 10.0429C0.152369 10.4334 0.152369 11.0666 0.542893 11.4571C0.933417 11.8476 1.56658 11.8476 1.95711 11.4571L6.00005 7.41416L10.043 11.4571C10.4335 11.8476 11.0667 11.8476 11.4572 11.4571C11.8477 11.0666 11.8477 10.4334 11.4572 10.0429L7.41426 5.99995L11.4571 1.95712C11.8476 1.56659 11.8476 0.933429 11.4571 0.542905C11.0666 0.152381 10.4334 0.152381 10.0429 0.542905L6.00005 4.58574L1.95721 0.542893Z" fill="#65686F"/>
</svg>
